<?xml version="1.0" encoding="utf-8"?>
<!-- Generator: Adobe Illustrator 23.0.0, SVG Export Plug-In . SVG Version: 6.00 Build 0)  -->
<svg version="1.1" id="Calque_1" xmlns="http://www.w3.org/2000/svg" xmlns:xlink="http://www.w3.org/1999/xlink" x="0px" y="0px"
	 viewBox="0 0 62 54" style="enable-background:new 0 0 62 54;" xml:space="preserve">
<style type="text/css">
	.st0{fill:#575757;}
	.st1{fill:#414141;}
</style>
<g>
	<g>
		<path class="st0" d="M50.3,53.1c-3.7-3.8-7.6-14.2-7.6-23.7c0-11.7,4.1-17,9.2-17c-12.6,0-31.2-3.8-43.6-11.2
			c-6.6-4-11.2,26.9-2.8,32.5C21.5,44.5,39.1,53.1,50.3,53.1z"/>
	</g>
	<path class="st1" d="M50.3,28.2l4.4-1.4v24.9c3.7-3.8,6.4-14.6,6.4-24c0-11.7-4.1-15.3-9.2-15.3s-9.2,5.3-9.2,17
		c0,9.4,3.9,19.8,7.6,23.7v-1.8L50.3,28.2z"/>
	<g>
		<polygon class="st0" points="54.7,51.7 50.3,51.7 50.3,28.2 54.7,26.8 		"/>
	</g>
</g>
</svg>
