<svg xmlns="http://www.w3.org/2000/svg" viewBox="0 0 22.5 22.5" class="spectre">
  <defs>
    <style>.cls-1{fill:#f05623;}.cls-2{fill:#ed3324;}.cls-3{fill:#a61d4c;}.cls-4{fill:#7d3693;}.cls-5{fill:#462f90;}.cls-6{fill:#3f5ca9;}.cls-7{fill:#0891cc;}.cls-8{fill:#65ae45;}.cls-9{fill:#cddc37;}.cls-10{fill:#f6eb39;}.cls-11{fill:#f7ba16;}.cls-12{fill:#f7981d;}</style>
  </defs>
  <title>Fichier 1</title>
  <g id="spectre" data-name="Calque 2">
    <g id="Calque_1-2" data-name="Calque 1">
      <path id="a" class="cls-1" d="M18,13.08a6.89,6.89,0,0,0,0-3.66L22.11,8.3a11.35,11.35,0,0,1,0,5.9"></path>
      <path class="cls-2" d="M16.16,16.2A7,7,0,0,0,18,13l4.13,1.09a11.22,11.22,0,0,1-2.95,5.11"></path>
      <path class="cls-3" d="M13,18a7,7,0,0,0,3.17-1.84l3,3a11.22,11.22,0,0,1-5.11,2.95"></path>
      <path class="cls-4" d="M9.42,18a6.89,6.89,0,0,0,3.66,0l1.12,4.13a11.35,11.35,0,0,1-5.9,0"></path>
      <path class="cls-5" d="M6.3,16.16A7,7,0,0,0,9.47,18L8.38,22.13a11.22,11.22,0,0,1-5.11-2.95"></path>
      <path class="cls-6" d="M4.5,13A7,7,0,0,0,6.34,16.2l-3,3A11.22,11.22,0,0,1,.37,14.12"></path>
      <path class="cls-7" d="M4.52,9.42a6.89,6.89,0,0,0,0,3.66L.39,14.2a11.35,11.35,0,0,1,0-5.9"></path>
      <path class="cls-8" d="M6.34,6.3A7,7,0,0,0,4.5,9.47L.37,8.38A11.22,11.22,0,0,1,3.32,3.27"></path>
      <path class="cls-9" d="M9.47,4.5A7,7,0,0,0,6.3,6.34l-3-3A11.22,11.22,0,0,1,8.38.37"></path>
      <path class="cls-10" d="M13.08,4.52a6.89,6.89,0,0,0-3.66,0L8.3.39a11.35,11.35,0,0,1,5.9,0"></path>
      <path class="cls-11" d="M16.2,6.34A7,7,0,0,0,13,4.5L14.12.37a11.22,11.22,0,0,1,5.11,2.95"></path>
      <path class="cls-12" d="M18,9.47A7,7,0,0,0,16.16,6.3l3-3a11.22,11.22,0,0,1,2.95,5.11"></path>
    </g>
  </g>
</svg>
